<svg xmlns="http://www.w3.org/2000/svg" viewBox="0 0 16.44 20.17"><defs><style>.cls-1{fill:#211f1f;fill-rule:evenodd;}</style></defs><title>Ресурс 19</title><g id="Слой_2" data-name="Слой 2"><g id="Layer_1" data-name="Layer 1"><path class="cls-1" d="M9.07,1.75A4.34,4.34,0,0,1,12.24,0a4.32,4.32,0,0,1-1,3.22,3.43,3.43,0,0,1-3,1.42A3.76,3.76,0,0,1,9.07,1.75Z"/><path class="cls-1" d="M8.36,5.79c.68,0,2-.94,3.59-.94a4.49,4.49,0,0,1,4,2,4.37,4.37,0,0,0-2.18,3.82,4.49,4.49,0,0,0,2.72,4.1s-1.9,5.35-4.46,5.35c-1.18,0-2.1-.8-3.34-.8s-2.52.83-3.34.83C3,20.17,0,15.1,0,11S2.5,4.91,4.85,4.91C6.38,4.91,7.57,5.79,8.36,5.79Z"/></g></g></svg>